{"title":"Grown.Ups.2.2013.BRRip.XviD-TODE","uid":9072242,"size":728546663,"categoryP":"video","categoryS":"movies","magnet":"?xt=urn:btih:424fa6a4a677195a17c933c410ad672a343f42e6&amp;dn=Grown.Ups.2.2013.BRRip.XviD-TODE&amp;tr=udp%3A%2F%2Ftracker.openbittorrent.com%3A80&amp;tr=udp%3A%2F%2Fopen.demonii.com%3A1337&amp;tr=udp%3A%2F%2Ftracker.coppersurfer.tk%3A6969&amp;tr=udp%3A%2F%2Fexodus.desync.com%3A6969","seeders":1,"leechers":0,"uploader":"xxxlavalxxx","files":-1,"time":1382219583,"description":"\n\n\n &lt;a href=&quot;\nhttp://www.imdb.com/title/tt2191701/&quot; rel=&quot;nofollow&quot; target=&quot;_NEW&quot;&gt;\nhttp://www.imdb.com/title/tt2191701/&lt;/a&gt;\n\n\n\nAfter moving his family back to his hometown to be with his friends and their kids, Lenny finds out that between old bullies, new bullies, schizo bus drivers, drunk cops on skis, and 400 costumed party crashers sometimes crazy follows you. \n\n\n\nDirector:\n Dennis Dugan \n\nWriters:\n Fred Wolf, Adam Sandler\n\nStars:\n Adam Sandler, Kevin James, Chris Rock \n\nGenres:\n  Comedy \n\nCountry:\n USA \n\nLanguage:\n English \n\n\nFormat                                   : AVI\nFormat/Info                              : Audio Video Interleave\nFile size                                : 695 MiB\nDuration                                 : 1h 40mn\nOverall bit rate                         : 962 Kbps\n\nVideo\nID                                       : 0\nFormat                                   : MPEG-4 Visual\nFormat profile                           : Advanced Simple@L5\nFormat settings, BVOP                    : 2\nFormat settings, QPel                    : No\nFormat settings, GMC                     : No warppoints\nFormat settings, Matrix                  : Default (H.263)\nCodec ID                                 : XVID\nCodec ID/Hint                            : XviD\nDuration                                 : 1h 40mn\nBit rate                                 : 828 Kbps\nWidth                                    : 720 pixels\nHeight                                   : 384 pixels\nDisplay aspect ratio                     : 1.85:1\nFrame rate                               : 23.976 fps\nColor space                              : YUV\nChroma subsampling                       : 4:2:0\nBit depth                                : 8 bits\nScan type                                : Progressive\nCompression mode                         : Lossy\nBits/(Pixel*Frame)                       : 0.125\nStream size                              : 598 MiB (86%)\nWriting library                          : XviD 1.2.1 (UTC 2008-12-04)\n\nAudio\nID                                       : 1\nFormat                                   : MPEG Audio\nFormat version                           : Version 1\nFormat profile                           : Layer 3\nMode                                     : Joint stereo\nMode extension                           : MS Stereo\nCodec ID                                 : 55\nCodec ID/Hint                            : MP3\nDuration                                 : 1h 40mn\nBit rate mode                            : Constant\nBit rate                                 : 128 Kbps\nChannel(s)                               : 2 channels\nSampling rate                            : 48.0 KHz\nCompression mode                         : Lossy\nStream size                              : 92.4 MiB (13%)\nAlignment                                : Aligned on interleaves\nInterleave, duration                     : 167 ms (4.00 video frames)\nInterleave, preload duration             : 216 ms\nTitle                                    : T2_Audio - English\nWriting library                          : LAME3.99r\nEncoding settings                        : -m j -V 4 -q 2 -lowpass 17 -b 128\n\n\n &lt;a href=&quot;\nhttp://i.imgur.com/AD04B1o.jpg&quot; rel=&quot;nofollow&quot; target=&quot;_NEW&quot;&gt;\nhttp://i.imgur.com/AD04B1o.jpg&lt;/a&gt; &lt;a href=&quot;\nhttp://i.imgur.com/6Cf4ERQ.jpg&quot; rel=&quot;nofollow&quot; target=&quot;_NEW&quot;&gt;\nhttp://i.imgur.com/6Cf4ERQ.jpg&lt;/a&gt; &lt;a href=&quot;\nhttp://i.imgur.com/zTHpVri.jpg&quot; rel=&quot;nofollow&quot; target=&quot;_NEW&quot;&gt;\nhttp://i.imgur.com/zTHpVri.jpg&lt;/a&gt; &lt;a href=&quot;\nhttp://i.imgur.com/xpT3RC1.jpg&quot; rel=&quot;nofollow&quot; target=&quot;_NEW&quot;&gt;\nhttp://i.imgur.com/xpT3RC1.jpg&lt;/a&gt;\n","torrent":{"xt":"urn:btih:424fa6a4a677195a17c933c410ad672a343f42e6","amp;dn":"Grown.Ups.2.2013.BRRip.XviD-TODE","amp;tr":["udp%3A%2F%2Ftracker.openbittorrent.com%3A80","udp%3A%2F%2Fopen.demonii.com%3A1337","udp%3A%2F%2Ftracker.coppersurfer.tk%3A6969","udp%3A%2F%2Fexodus.desync.com%3A6969"],"infoHash":"424fa6a4a677195a17c933c410ad672a343f42e6","infoHashBuffer":{"type":"Buffer","data":[66,79,166,164,166,119,25,90,23,201,51,196,16,173,103,42,52,63,66,230]},"announce":[],"urlList":[]}}